GTL001-Regular.ufo
<glyph name="exclam" format="2">
  <advance width="290"/>
  <unicode hex="0021"/>
  <outline>
    <contour>
      <point x="145" y="-10" type="curve" smooth="yes"/>
      <point x="195" y="-10"/>
      <point x="245" y="25"/>
      <point x="245" y="90" type="curve" smooth="yes"/>
      <point x="245" y="145"/>
      <point x="195" y="180"/>
      <point x="145" y="180" type="curve" smooth="yes"/>
      <point x="95" y="180"/>
      <point x="45" y="145"/>
      <point x="45" y="90" type="curve" smooth="yes"/>
      <point x="45" y="25"/>
      <point x="95" y="-10"/>
    </contour>
    <contour>
      <point x="95" y="220" type="line"/>
      <point x="205" y="220" type="line"/>
      <point x="225" y="240" type="line"/>
      <point x="247" y="334"/>
      <point x="280" y="503"/>
      <point x="280" y="570" type="curve" smooth="yes"/>
      <point x="280" y="650"/>
      <point x="220" y="710"/>
      <point x="145" y="710" type="curve" smooth="yes"/>
      <point x="70" y="710"/>
      <point x="10" y="650"/>
      <point x="10" y="570" type="curve" smooth="yes"/>
      <point x="10" y="502"/>
      <point x="54" y="333"/>
      <point x="75" y="240" type="curve"/>
    </contour>
  </outline>
</glyph>
<glyph name="dollar" format="2">
  <advance width="510"/>
  <unicode hex="0024"/>
  <outline>
    <contour>
      <point x="451" y="547" type="line" smooth="yes"/>
      <point x="432" y="606"/>
      <point x="393" y="652"/>
      <point x="340" y="675" type="curve" smooth="yes"/>
      <point x="340" y="710" type="line"/>
      <point x="170" y="710" type="line"/>
      <point x="170" y="680" type="line" smooth="yes"/>
      <point x="86" y="656"/>
      <point x="25" y="578"/>
      <point x="25" y="496" type="curve" smooth="yes"/>
      <point x="25" y="422"/>
      <point x="62" y="382"/>
      <point x="115" y="340" type="curve" smooth="yes"/>
      <point x="15" y="250" type="line" smooth="yes"/>
      <point x="15" y="153"/>
      <point x="73" y="54"/>
      <point x="170" y="22" type="curve" smooth="yes"/>
      <point x="170" y="-10" type="line"/>
      <point x="340" y="-10" type="line"/>
      <point x="340" y="28" type="line" smooth="yes"/>
      <point x="435" y="65"/>
      <point x="495" y="158"/>
      <point x="495" y="250" type="curve" smooth="yes"/>
      <point x="495" y="364"/>
      <point x="428" y="424"/>
      <point x="365" y="480" type="curve" smooth="yes"/>
    </contour>
  </outline>
</glyph>
<glyph name="ampersand" format="2">
  <advance width="630"/>
  <unicode hex="0026"/>
  <outline>
    <contour>
      <point x="254" y="0" type="curve" smooth="yes"/>
      <point x="595" y="0" type="line"/>
      <point x="615" y="20" type="line"/>
      <point x="615" y="330" type="line"/>
      <point x="595" y="350" type="line"/>
      <point x="259" y="350" type="line"/>
      <point x="249" y="360" type="line"/>
      <point x="249" y="365" type="line"/>
      <point x="259" y="375" type="line"/>
      <point x="505" y="375" type="line"/>
      <point x="515" y="385" type="line"/>
      <point x="515" y="465" type="line"/>
      <point x="505" y="475" type="line"/>
      <point x="255" y="475" type="line"/>
      <point x="245" y="485" type="line"/>
      <point x="245" y="490" type="line"/>
      <point x="255" y="500" type="line"/>
      <point x="411" y="500" type="line"/>
      <point x="421" y="510" type="line"/>
      <point x="421" y="540" type="line" smooth="yes"/>
      <point x="421" y="629"/>
      <point x="345" y="710"/>
      <point x="238" y="710" type="curve" smooth="yes"/>
      <point x="127" y="710"/>
      <point x="45" y="630"/>
      <point x="45" y="520" type="curve" smooth="yes"/>
      <point x="45" y="449"/>
      <point x="84" y="396"/>
      <point x="115" y="375" type="curve"/>
      <point x="125" y="365" type="line"/>
      <point x="125" y="360" type="line"/>
      <point x="115" y="350" type="line"/>
      <point x="65" y="329"/>
      <point x="10" y="289"/>
      <point x="10" y="178" type="curve" smooth="yes"/>
      <point x="10" y="67"/>
      <point x="107" y="0"/>
    </contour>
  </outline>
</glyph>
<glyph name="parenleft" format="2">
  <advance width="285"/>
  <unicode hex="0028"/>
  <outline>
    <contour>
      <point x="250" y="-10" type="line"/>
      <point x="110" y="-10"/>
      <point x="10" y="148"/>
      <point x="10" y="350" type="curve" smooth="yes"/>
      <point x="10" y="537"/>
      <point x="110" y="710"/>
      <point x="250" y="710" type="curve"/>
      <point x="270" y="690" type="line"/>
      <point x="270" y="10" type="line"/>
    </contour>
  </outline>
</glyph>
<glyph name="parenright" format="2">
  <advance width="285"/>
  <unicode hex="0029"/>
  <outline>
    <contour>
      <point x="35" y="-10" type="line"/>
      <point x="175" y="-10"/>
      <point x="275" y="120"/>
      <point x="275" y="350" type="curve" smooth="yes"/>
      <point x="275" y="582"/>
      <point x="185" y="710"/>
      <point x="35" y="710" type="curve"/>
      <point x="15" y="690" type="line"/>
      <point x="15" y="10" type="line"/>
    </contour>
  </outline>
</glyph>
<glyph name="comma" format="2">
  <advance width="230"/>
  <unicode hex="002C"/>
  <outline>
    <contour>
      <point x="95" y="-30" type="line"/>
      <point x="151" y="-30" type="line"/>
      <point x="161" y="-20" type="line" smooth="yes"/>
      <point x="188" y="7"/>
      <point x="215" y="49"/>
      <point x="215" y="90" type="curve" smooth="yes"/>
      <point x="215" y="145"/>
      <point x="165" y="180"/>
      <point x="115" y="180" type="curve" smooth="yes"/>
      <point x="65" y="180"/>
      <point x="15" y="145"/>
      <point x="15" y="90" type="curve" smooth="yes"/>
      <point x="15" y="52"/>
      <point x="41" y="20"/>
      <point x="85" y="20" type="curve"/>
      <point x="95" y="10" type="line"/>
      <point x="85" y="-10" type="line"/>
      <point x="85" y="-20" type="line"/>
    </contour>
  </outline>
</glyph>
<glyph name="hyphen" format="2">
  <advance width="280"/>
  <unicode hex="002D"/>
  <outline>
    <contour>
      <point x="22" y="375" type="line"/>
      <point x="255" y="375" type="line"/>
      <point x="265" y="385" type="line"/>
      <point x="265" y="465" type="line"/>
      <point x="255" y="475" type="line"/>
      <point x="25" y="475" type="line"/>
      <point x="15" y="465" type="line"/>
      <point x="15" y="385" type="line"/>
    </contour>
  </outline>
</glyph>
<glyph name="zero" format="2">
  <advance width="530"/>
  <unicode hex="0030"/>
  <outline>
    <contour>
      <point x="260" y="-10" type="curve" smooth="yes"/>
      <point x="390" y="-10"/>
      <point x="515" y="78"/>
      <point x="515" y="218" type="curve" smooth="yes"/>
      <point x="515" y="440" type="line" smooth="yes"/>
      <point x="515" y="640"/>
      <point x="390" y="710"/>
      <point x="260" y="710" type="curve" smooth="yes"/>
      <point x="130" y="710"/>
      <point x="15" y="640"/>
      <point x="15" y="440" type="curve" smooth="yes"/>
      <point x="15" y="218" type="line" smooth="yes"/>
      <point x="15" y="78"/>
      <point x="130" y="-10"/>
    </contour>
  </outline>
</glyph>
<glyph name="one" format="2">
  <advance width="360"/>
  <unicode hex="0031"/>
  <outline>
    <contour>
      <point x="135" y="0" type="line"/>
      <point x="325" y="0" type="line"/>
      <point x="345" y="20" type="line"/>
      <point x="345" y="680" type="line"/>
      <point x="325" y="700" type="line"/>
      <point x="35" y="700" type="line"/>
      <point x="15" y="680" type="line"/>
      <point x="15" y="520" type="line"/>
      <point x="35" y="500" type="line"/>
      <point x="105" y="500" type="line"/>
      <point x="115" y="490" type="line"/>
      <point x="115" y="20" type="line"/>
    </contour>
  </outline>
</glyph>
<glyph name="two" format="2">
  <advance width="470"/>
  <unicode hex="0032"/>
  <outline>
    <contour>
      <point x="45" y="0" type="line"/>
      <point x="435" y="0" type="line"/>
      <point x="455" y="20" type="line"/>
      <point x="455" y="330" type="line"/>
      <point x="435" y="350" type="line"/>
      <point x="366" y="350" type="line"/>
      <point x="356" y="360" type="line"/>
      <point x="356" y="370" type="line"/>
      <point x="379" y="445" type="line" smooth="yes"/>
      <point x="389" y="479"/>
      <point x="400" y="507"/>
      <point x="400" y="540" type="curve" smooth="yes"/>
      <point x="400" y="628"/>
      <point x="344" y="710"/>
      <point x="215" y="710" type="curve" smooth="yes"/>
      <point x="77" y="710"/>
      <point x="15" y="633"/>
      <point x="15" y="540" type="curve" smooth="yes"/>
      <point x="15" y="520" type="line"/>
      <point x="35" y="500" type="line"/>
      <point x="153" y="500" type="line"/>
      <point x="163" y="490" type="line"/>
      <point x="163" y="480" type="line"/>
      <point x="25" y="40" type="line"/>
      <point x="25" y="20" type="line"/>
    </contour>
  </outline>
</glyph>
<glyph name="three" format="2">
  <advance width="525"/>
  <unicode hex="0033"/>
  <outline>
    <contour>
      <point x="263" y="-10" type="curve" smooth="yes"/>
      <point x="442" y="-10"/>
      <point x="515" y="109"/>
      <point x="515" y="241" type="curve" smooth="yes"/>
      <point x="515" y="367"/>
      <point x="441" y="452"/>
      <point x="354" y="475" type="curve"/>
      <point x="344" y="485" type="line"/>
      <point x="344" y="490" type="line"/>
      <point x="354" y="500" type="line"/>
      <point x="378" y="518"/>
      <point x="405" y="551"/>
      <point x="405" y="589" type="curve" smooth="yes"/>
      <point x="405" y="683"/>
      <point x="340" y="710"/>
      <point x="265" y="710" type="curve" smooth="yes"/>
      <point x="160" y="710"/>
      <point x="124" y="667"/>
      <point x="124" y="560" type="curve" smooth="yes"/>
      <point x="124" y="510" type="line"/>
      <point x="134" y="500" type="line"/>
      <point x="253" y="500" type="line"/>
      <point x="263" y="490" type="line"/>
      <point x="263" y="485" type="line"/>
      <point x="253" y="475" type="line"/>
      <point x="134" y="475" type="line"/>
      <point x="124" y="465" type="line"/>
      <point x="124" y="385" type="line"/>
      <point x="134" y="375" type="line"/>
      <point x="254" y="375" type="line"/>
      <point x="264" y="365" type="line"/>
      <point x="264" y="360" type="line"/>
      <point x="254" y="350" type="line"/>
      <point x="36" y="350" type="line"/>
      <point x="15" y="330" type="line"/>
      <point x="15" y="250" type="line" smooth="yes"/>
      <point x="15" y="101"/>
      <point x="97" y="-10"/>
    </contour>
  </outline>
</glyph>
<glyph name="four" format="2">
  <advance width="375"/>
  <unicode hex="0034"/>
  <outline>
    <contour>
      <point x="150" y="0" type="line"/>
      <point x="340" y="0" type="line"/>
      <point x="360" y="20" type="line"/>
      <point x="360" y="465" type="line"/>
      <point x="350" y="475" type="line"/>
      <point x="250" y="475" type="line"/>
      <point x="240" y="485" type="line"/>
      <point x="240" y="490" type="line"/>
      <point x="250" y="500" type="line"/>
      <point x="350" y="500" type="line"/>
      <point x="360" y="510" type="line"/>
      <point x="360" y="680" type="line"/>
      <point x="340" y="700" type="line"/>
      <point x="160" y="700" type="line"/>
      <point x="140" y="680" type="line"/>
      <point x="10" y="495" type="line"/>
      <point x="10" y="475" type="line"/>
      <point x="30" y="455" type="line"/>
      <point x="120" y="455" type="line"/>
      <point x="130" y="445" type="line"/>
      <point x="130" y="20" type="line"/>
    </contour>
  </outline>
</glyph>
<glyph name="five" format="2">
  <advance width="520"/>
  <unicode hex="0035"/>
  <outline>
    <contour>
      <point x="259" y="-10" type="curve" smooth="yes"/>
      <point x="401" y="-10"/>
      <point x="510" y="85"/>
      <point x="510" y="250" type="curve" smooth="yes"/>
      <point x="510" y="375"/>
      <point x="403" y="475"/>
      <point x="250" y="475" type="curve"/>
      <point x="240" y="485" type="line"/>
      <point x="240" y="490" type="line"/>
      <point x="250" y="500" type="line"/>
      <point x="385" y="500" type="line"/>
      <point x="405" y="520" type="line"/>
      <point x="405" y="680" type="line"/>
      <point x="385" y="700" type="line"/>
      <point x="90" y="700" type="line"/>
      <point x="70" y="680" type="line"/>
      <point x="70" y="385" type="line"/>
      <point x="80" y="375" type="line"/>
      <point x="250" y="375" type="line"/>
      <point x="260" y="365" type="line"/>
      <point x="260" y="360" type="line"/>
      <point x="250" y="350" type="line"/>
      <point x="30" y="350" type="line"/>
      <point x="10" y="330" type="line"/>
      <point x="10" y="250" type="line" smooth="yes"/>
      <point x="10" y="85"/>
      <point x="137" y="-10"/>
    </contour>
  </outline>
</glyph>
<glyph name="six" format="2">
  <advance width="525"/>
  <unicode hex="0036"/>
  <outline>
    <contour>
      <point x="265" y="-10" type="curve" smooth="yes"/>
      <point x="398" y="-10"/>
      <point x="515" y="97"/>
      <point x="515" y="237" type="curve" smooth="yes"/>
      <point x="515" y="387"/>
      <point x="428" y="475"/>
      <point x="298" y="475" type="curve" smooth="yes"/>
      <point x="214" y="475" type="line"/>
      <point x="204" y="485" type="line"/>
      <point x="204" y="490" type="line"/>
      <point x="214" y="500" type="line"/>
      <point x="390" y="500" type="line"/>
      <point x="410" y="520" type="line"/>
      <point x="410" y="680" type="line"/>
      <point x="390" y="700" type="line"/>
      <point x="303" y="700" type="line" smooth="yes"/>
      <point x="144" y="700"/>
      <point x="15" y="522"/>
      <point x="15" y="319" type="curve" smooth="yes"/>
      <point x="15" y="237" type="line" smooth="yes"/>
      <point x="15" y="97"/>
      <point x="117" y="-10"/>
    </contour>
  </outline>
</glyph>
<glyph name="seven" format="2">
  <advance width="412"/>
  <unicode hex="0037"/>
  <outline>
    <contour>
      <point x="80" y="0" type="line"/>
      <point x="182" y="0" type="line"/>
      <point x="202" y="20" type="line"/>
      <point x="402" y="660" type="line"/>
      <point x="402" y="680" type="line"/>
      <point x="382" y="700" type="line"/>
      <point x="35" y="700" type="line"/>
      <point x="15" y="680" type="line"/>
      <point x="15" y="520" type="line"/>
      <point x="35" y="500" type="line"/>
      <point x="191" y="500" type="line"/>
      <point x="201" y="490" type="line"/>
      <point x="60" y="40" type="line"/>
      <point x="60" y="20" type="line"/>
    </contour>
  </outline>
</glyph>
<glyph name="eight" format="2">
  <advance width="520"/>
  <unicode hex="0038"/>
  <outline>
    <contour>
      <point x="260" y="-11" type="curve" smooth="yes"/>
      <point x="380" y="-11"/>
      <point x="511" y="75"/>
      <point x="510" y="239" type="curve" smooth="yes"/>
      <point x="509" y="383"/>
      <point x="408" y="475"/>
      <point x="285" y="475" type="curve"/>
      <point x="275" y="485" type="line"/>
      <point x="275" y="490" type="line"/>
      <point x="285" y="500" type="line"/>
      <point x="345" y="500"/>
      <point x="381" y="548"/>
      <point x="381" y="597" type="curve" smooth="yes"/>
      <point x="381" y="666"/>
      <point x="320" y="710"/>
      <point x="260" y="710" type="curve" smooth="yes"/>
      <point x="200" y="710"/>
      <point x="145" y="666"/>
      <point x="145" y="597" type="curve" smooth="yes"/>
      <point x="145" y="548"/>
      <point x="175" y="500"/>
      <point x="235" y="500" type="curve"/>
      <point x="245" y="490" type="line"/>
      <point x="245" y="484" type="line"/>
      <point x="235" y="474" type="line"/>
      <point x="117" y="470"/>
      <point x="10" y="383"/>
      <point x="10" y="239" type="curve" smooth="yes"/>
      <point x="10" y="75"/>
      <point x="140" y="-11"/>
    </contour>
  </outline>
</glyph>
<glyph name="nine" format="2">
  <advance width="380"/>
  <unicode hex="0039"/>
  <outline>
    <contour>
      <point x="98" y="0" type="line"/>
      <point x="200" y="0" type="line"/>
      <point x="220" y="20" type="line"/>
      <point x="314" y="321" type="line" smooth="yes"/>
      <point x="345" y="419"/>
      <point x="371" y="478"/>
      <point x="370" y="528" type="curve" smooth="yes"/>
      <point x="368" y="644"/>
      <point x="279" y="710"/>
      <point x="189" y="710" type="curve" smooth="yes"/>
      <point x="88" y="710"/>
      <point x="10" y="631"/>
      <point x="10" y="528" type="curve" smooth="yes"/>
      <point x="10" y="425"/>
      <point x="104" y="375"/>
      <point x="170" y="375" type="curve"/>
      <point x="180" y="365" type="line"/>
      <point x="78" y="40" type="line"/>
      <point x="78" y="20" type="line"/>
    </contour>
  </outline>
</glyph>
<glyph name="colon" format="2">
  <advance width="230"/>
  <unicode hex="003A"/>
  <outline>
    <contour>
      <point x="115" y="-10" type="curve" smooth="yes"/>
      <point x="165" y="-10"/>
      <point x="215" y="25"/>
      <point x="215" y="90" type="curve" smooth="yes"/>
      <point x="215" y="145"/>
      <point x="165" y="180"/>
      <point x="115" y="180" type="curve" smooth="yes"/>
      <point x="65" y="180"/>
      <point x="15" y="145"/>
      <point x="15" y="90" type="curve" smooth="yes"/>
      <point x="15" y="25"/>
      <point x="65" y="-10"/>
    </contour>
    <contour>
      <point x="115" y="230" type="curve" smooth="yes"/>
      <point x="178" y="229"/>
      <point x="215" y="270"/>
      <point x="215" y="330" type="curve" smooth="yes"/>
      <point x="215" y="390"/>
      <point x="165" y="420"/>
      <point x="115" y="420" type="curve" smooth="yes"/>
      <point x="65" y="420"/>
      <point x="15" y="390"/>
      <point x="15" y="330" type="curve" smooth="yes"/>
      <point x="15" y="270"/>
      <point x="66" y="231"/>
    </contour>
  </outline>
</glyph>
<glyph name="semicolon" format="2">
  <advance width="234"/>
  <unicode hex="003B"/>
  <outline>
    <contour>
      <point x="119" y="230" type="curve" smooth="yes"/>
      <point x="169" y="230"/>
      <point x="219" y="270"/>
      <point x="219" y="330" type="curve" smooth="yes"/>
      <point x="219" y="390"/>
      <point x="169" y="420"/>
      <point x="119" y="420" type="curve" smooth="yes"/>
      <point x="69" y="420"/>
      <point x="15" y="390"/>
      <point x="15" y="330" type="curve" smooth="yes"/>
      <point x="15" y="270"/>
      <point x="70" y="230"/>
    </contour>
    <contour>
      <point x="95" y="-30" type="line"/>
      <point x="151" y="-30" type="line"/>
      <point x="161" y="-20" type="line" smooth="yes"/>
      <point x="188" y="7"/>
      <point x="215" y="49"/>
      <point x="215" y="90" type="curve" smooth="yes"/>
      <point x="215" y="145"/>
      <point x="165" y="180"/>
      <point x="115" y="180" type="curve" smooth="yes"/>
      <point x="65" y="180"/>
      <point x="15" y="145"/>
      <point x="15" y="90" type="curve" smooth="yes"/>
      <point x="15" y="52"/>
      <point x="41" y="20"/>
      <point x="85" y="20" type="curve"/>
      <point x="95" y="10" type="line"/>
      <point x="85" y="-10" type="line"/>
      <point x="85" y="-20" type="line"/>
    </contour>
  </outline>
</glyph>
<glyph name="question" format="2">
  <advance width="395"/>
  <unicode hex="003F"/>
  <outline>
    <contour>
      <point x="200" y="-10" type="curve" smooth="yes"/>
      <point x="250" y="-10"/>
      <point x="300" y="25"/>
      <point x="300" y="90" type="curve" smooth="yes"/>
      <point x="300" y="145"/>
      <point x="250" y="180"/>
      <point x="200" y="180" type="curve" smooth="yes"/>
      <point x="150" y="180"/>
      <point x="100" y="145"/>
      <point x="100" y="90" type="curve" smooth="yes"/>
      <point x="100" y="25"/>
      <point x="150" y="-10"/>
    </contour>
    <contour>
      <point x="160" y="220" type="line"/>
      <point x="240" y="220" type="line"/>
      <point x="260" y="240" type="line"/>
      <point x="344" y="401"/>
      <point x="385" y="480"/>
      <point x="385" y="540" type="curve" smooth="yes"/>
      <point x="385" y="622"/>
      <point x="321" y="710"/>
      <point x="201" y="710" type="curve" smooth="yes"/>
      <point x="81" y="710"/>
      <point x="15" y="622"/>
      <point x="15" y="540" type="curve" smooth="yes"/>
      <point x="15" y="520" type="line"/>
      <point x="35" y="500" type="line"/>
      <point x="190" y="500" type="line"/>
      <point x="200" y="490" type="line"/>
      <point x="140" y="240" type="line"/>
    </contour>
  </outline>
</glyph>
<glyph name="A" format="2">
  <advance width="520"/>
  <unicode hex="0041"/>
  <outline>
    <contour>
      <point x="35" y="0" type="line"/>
      <point x="235" y="0" type="line"/>
      <point x="245" y="10" type="line"/>
      <point x="245" y="340" type="line"/>
      <point x="255" y="350" type="line"/>
      <point x="265" y="350" type="line"/>
      <point x="275" y="340" type="line"/>
      <point x="275" y="10" type="line"/>
      <point x="285" y="0" type="line"/>
      <point x="485" y="0" type="line"/>
      <point x="505" y="20" type="line"/>
      <point x="505" y="40" type="line"/>
      <point x="280" y="690" type="line"/>
      <point x="270" y="700" type="line"/>
      <point x="250" y="700" type="line"/>
      <point x="240" y="690" type="line"/>
      <point x="15" y="40" type="line"/>
      <point x="15" y="20" type="line"/>
    </contour>
  </outline>
</glyph>
<glyph name="B" format="2">
  <advance width="556"/>
  <unicode hex="0042"/>
  <outline>
    <contour>
      <point x="35" y="0" type="line"/>
      <point x="328" y="0" type="line" smooth="yes"/>
      <point x="467" y="0"/>
      <point x="546" y="124"/>
      <point x="546" y="233" type="curve" smooth="yes"/>
      <point x="546" y="376"/>
      <point x="465" y="462"/>
      <point x="339" y="475" type="curve"/>
      <point x="329" y="485" type="line"/>
      <point x="329" y="490" type="line"/>
      <point x="339" y="500" type="line"/>
      <point x="391" y="516"/>
      <point x="407" y="551"/>
      <point x="407" y="590" type="curve" smooth="yes"/>
      <point x="407" y="657"/>
      <point x="356" y="700"/>
      <point x="279" y="700" type="curve" smooth="yes"/>
      <point x="35" y="700" type="line"/>
      <point x="15" y="680" type="line"/>
      <point x="15" y="510" type="line"/>
      <point x="25" y="500" type="line"/>
      <point x="217" y="500" type="line"/>
      <point x="227" y="490" type="line"/>
      <point x="227" y="485" type="line"/>
      <point x="217" y="475" type="line"/>
      <point x="25" y="475" type="line"/>
      <point x="15" y="465" type="line"/>
      <point x="15" y="385" type="line"/>
      <point x="25" y="375" type="line"/>
      <point x="247" y="375" type="line"/>
      <point x="257" y="365" type="line"/>
      <point x="257" y="360" type="line"/>
      <point x="247" y="350" type="line"/>
      <point x="25" y="350" type="line"/>
      <point x="15" y="340" type="line"/>
      <point x="15" y="20" type="line"/>
    </contour>
  </outline>
</glyph>
<glyph name="C" format="2">
  <advance width="735"/>
  <unicode hex="0043"/>
  <outline>
    <contour>
      <point x="370" y="-10" type="curve" smooth="yes"/>
      <point x="569" y="-10"/>
      <point x="725" y="155"/>
      <point x="725" y="310" type="curve" smooth="yes"/>
      <point x="725" y="330" type="line"/>
      <point x="705" y="350" type="line"/>
      <point x="356" y="350" type="line"/>
      <point x="346" y="361" type="line"/>
      <point x="351" y="372" type="line"/>
      <point x="615" y="540" type="line"/>
      <point x="625" y="560" type="line"/>
      <point x="625" y="580" type="line"/>
      <point x="586" y="659"/>
      <point x="486" y="710"/>
      <point x="366" y="710" type="curve" smooth="yes"/>
      <point x="171" y="710"/>
      <point x="10" y="549"/>
      <point x="10" y="350" type="curve" smooth="yes"/>
      <point x="10" y="151"/>
      <point x="171" y="-10"/>
    </contour>
  </outline>
</glyph>
<glyph name="D" format="2">
  <advance width="575"/>
  <unicode hex="0044"/>
  <outline>
    <contour>
      <point x="34" y="0" type="line"/>
      <point x="15" y="20" type="line"/>
      <point x="15" y="465" type="line"/>
      <point x="25" y="475" type="line"/>
      <point x="215" y="475" type="line"/>
      <point x="225" y="485" type="line"/>
      <point x="225" y="490" type="line"/>
      <point x="215" y="500" type="line"/>
      <point x="25" y="500" type="line"/>
      <point x="15" y="510" type="line"/>
      <point x="19" y="680" type="line"/>
      <point x="39" y="700" type="line"/>
      <point x="225" y="700" type="line" smooth="yes"/>
      <point x="415" y="700"/>
      <point x="565" y="612"/>
      <point x="565" y="350" type="curve" smooth="yes"/>
      <point x="565" y="96"/>
      <point x="426" y="0"/>
      <point x="236" y="0" type="curve" smooth="yes"/>
    </contour>
  </outline>
</glyph>
<glyph name="E" format="2">
  <advance width="510"/>
  <unicode hex="0045"/>
  <outline>
    <contour>
      <point x="35" y="0" type="line"/>
      <point x="475" y="0" type="line"/>
      <point x="495" y="20" type="line"/>
      <point x="495" y="330" type="line"/>
      <point x="475" y="350" type="line"/>
      <point x="250" y="350" type="line"/>
      <point x="240" y="360" type="line"/>
      <point x="240" y="365" type="line"/>
      <point x="250" y="375" type="line"/>
      <point x="415" y="375" type="line"/>
      <point x="425" y="385" type="line"/>
      <point x="425" y="465" type="line"/>
      <point x="415" y="475" type="line"/>
      <point x="245" y="475" type="line"/>
      <point x="235" y="485" type="line"/>
      <point x="235" y="490" type="line"/>
      <point x="245" y="500" type="line"/>
      <point x="395" y="500" type="line"/>
      <point x="405" y="510" type="line"/>
      <point x="405" y="680" type="line"/>
      <point x="385" y="700" type="line"/>
      <point x="35" y="700" type="line"/>
      <point x="15" y="680" type="line"/>
      <point x="15" y="20" type="line"/>
    </contour>
  </outline>
</glyph>
<glyph name="F" format="2">
  <advance width="430"/>
  <unicode hex="0046"/>
  <outline>
    <contour>
      <point x="35" y="0" type="line"/>
      <point x="225" y="0" type="line"/>
      <point x="245" y="20" type="line"/>
      <point x="245" y="365" type="line"/>
      <point x="255" y="375" type="line"/>
      <point x="335" y="375" type="line"/>
      <point x="345" y="385" type="line"/>
      <point x="345" y="465" type="line"/>
      <point x="335" y="475" type="line"/>
      <point x="255" y="475" type="line"/>
      <point x="245" y="485" type="line"/>
      <point x="245" y="490" type="line"/>
      <point x="255" y="500" type="line"/>
      <point x="395" y="500" type="line"/>
      <point x="415" y="520" type="line"/>
      <point x="415" y="680" type="line"/>
      <point x="395" y="700" type="line"/>
      <point x="35" y="700" type="line"/>
      <point x="15" y="680" type="line"/>
      <point x="15" y="20" type="line"/>
    </contour>
  </outline>
</glyph>
<glyph name="G" format="2">
  <advance width="740"/>
  <unicode hex="0047"/>
  <outline>
    <contour>
      <point x="375" y="-10" type="curve" smooth="yes"/>
      <point x="486" y="-10"/>
      <point x="558" y="39"/>
      <point x="605" y="79" type="curve"/>
      <point x="615" y="84" type="line"/>
      <point x="625" y="79" type="line"/>
      <point x="665" y="20" type="line"/>
      <point x="685" y="0" type="line"/>
      <point x="705" y="0" type="line"/>
      <point x="725" y="20" type="line"/>
      <point x="725" y="330" type="line"/>
      <point x="705" y="350" type="line"/>
      <point x="356" y="350" type="line"/>
      <point x="346" y="362" type="line"/>
      <point x="351" y="372" type="line"/>
      <point x="625" y="530" type="line"/>
      <point x="635" y="550" type="line"/>
      <point x="635" y="570" type="line"/>
      <point x="595" y="639"/>
      <point x="520" y="710"/>
      <point x="355" y="710" type="curve" smooth="yes"/>
      <point x="167" y="710"/>
      <point x="10" y="544"/>
      <point x="10" y="349" type="curve" smooth="yes"/>
      <point x="10" y="157"/>
      <point x="164" y="-10"/>
    </contour>
  </outline>
</glyph>
<glyph name="H" format="2">
  <advance width="520"/>
  <unicode hex="0048"/>
  <outline>
    <contour>
      <point x="35" y="0" type="line"/>
      <point x="235" y="0" type="line"/>
      <point x="245" y="10" type="line"/>
      <point x="245" y="340" type="line"/>
      <point x="255" y="350" type="line"/>
      <point x="265" y="350" type="line"/>
      <point x="275" y="340" type="line"/>
      <point x="275" y="10" type="line"/>
      <point x="285" y="0" type="line"/>
      <point x="485" y="0" type="line"/>
      <point x="505" y="20" type="line"/>
      <point x="505" y="680" type="line"/>
      <point x="485" y="700" type="line"/>
      <point x="285" y="700" type="line"/>
      <point x="275" y="690" type="line"/>
      <point x="275" y="510" type="line"/>
      <point x="265" y="500" type="line"/>
      <point x="255" y="500" type="line"/>
      <point x="245" y="510" type="line"/>
      <point x="245" y="690" type="line"/>
      <point x="235" y="700" type="line"/>
      <point x="35" y="700" type="line"/>
      <point x="15" y="680" type="line"/>
      <point x="15" y="20" type="line"/>
    </contour>
  </outline>
</glyph>
<glyph name="I" format="2">
  <advance width="260"/>
  <unicode hex="0049"/>
  <outline>
    <contour>
      <point x="35" y="0" type="line"/>
      <point x="225" y="0" type="line"/>
      <point x="245" y="20" type="line"/>
      <point x="245" y="680" type="line"/>
      <point x="225" y="700" type="line"/>
      <point x="35" y="700" type="line"/>
      <point x="15" y="680" type="line"/>
      <point x="15" y="20" type="line"/>
    </contour>
  </outline>
</glyph>
<glyph name="J" format="2">
  <advance width="520"/>
  <unicode hex="004A"/>
  <outline>
    <contour>
      <point x="265" y="-10" type="curve" smooth="yes"/>
      <point x="431" y="-9"/>
      <point x="505" y="51"/>
      <point x="505" y="190" type="curve" smooth="yes"/>
      <point x="505" y="680" type="line"/>
      <point x="485" y="700" type="line"/>
      <point x="295" y="700" type="line"/>
      <point x="275" y="680" type="line"/>
      <point x="275" y="190" type="line"/>
      <point x="265" y="180" type="line"/>
      <point x="255" y="180" type="line"/>
      <point x="245" y="190" type="line"/>
      <point x="245" y="340" type="line"/>
      <point x="235" y="350" type="line"/>
      <point x="35" y="350" type="line"/>
      <point x="15" y="330" type="line"/>
      <point x="15" y="180" type="line" smooth="yes"/>
      <point x="15" y="51"/>
      <point x="126" y="-11"/>
    </contour>
  </outline>
</glyph>
<glyph name="K" format="2">
  <advance width="598"/>
  <unicode hex="004B"/>
  <outline>
    <contour>
      <point x="35" y="0" type="line"/>
      <point x="235" y="0" type="line"/>
      <point x="245" y="10" type="line"/>
      <point x="245" y="340" type="line"/>
      <point x="255" y="350" type="line"/>
      <point x="265" y="350" type="line"/>
      <point x="275" y="340" type="line"/>
      <point x="275" y="10" type="line"/>
      <point x="285" y="0" type="line"/>
      <point x="568" y="0" type="line"/>
      <point x="588" y="20" type="line"/>
      <point x="588" y="40" type="line"/>
      <point x="435" y="400" type="line"/>
      <point x="433" y="410" type="line"/>
      <point x="435" y="420" type="line"/>
      <point x="585" y="660" type="line"/>
      <point x="585" y="680" type="line"/>
      <point x="565" y="700" type="line"/>
      <point x="285" y="700" type="line"/>
      <point x="275" y="690" type="line"/>
      <point x="275" y="510" type="line"/>
      <point x="265" y="500" type="line"/>
      <point x="255" y="500" type="line"/>
      <point x="245" y="510" type="line"/>
      <point x="245" y="690" type="line"/>
      <point x="235" y="700" type="line"/>
      <point x="35" y="700" type="line"/>
      <point x="15" y="680" type="line"/>
      <point x="15" y="20" type="line"/>
    </contour>
  </outline>
</glyph>
<glyph name="L" format="2">
  <advance width="360"/>
  <unicode hex="004C"/>
  <outline>
    <contour>
      <point x="35" y="0" type="line"/>
      <point x="325" y="0" type="line"/>
      <point x="345" y="20" type="line"/>
      <point x="345" y="328" type="line"/>
      <point x="325" y="350" type="line"/>
      <point x="255" y="350" type="line"/>
      <point x="245" y="360" type="line"/>
      <point x="245" y="680" type="line"/>
      <point x="225" y="700" type="line"/>
      <point x="35" y="700" type="line"/>
      <point x="15" y="680" type="line"/>
      <point x="15" y="20" type="line"/>
    </contour>
  </outline>
</glyph>
<glyph name="M" format="2">
  <advance width="780"/>
  <unicode hex="004D"/>
  <outline>
    <contour>
      <point x="35" y="0" type="line"/>
      <point x="235" y="0" type="line"/>
      <point x="245" y="10" type="line"/>
      <point x="245" y="340" type="line"/>
      <point x="255" y="350" type="line"/>
      <point x="265" y="350" type="line"/>
      <point x="275" y="340" type="line"/>
      <point x="275" y="10" type="line"/>
      <point x="285" y="0" type="line"/>
      <point x="495" y="0" type="line"/>
      <point x="505" y="10" type="line"/>
      <point x="505" y="340" type="line"/>
      <point x="515" y="350" type="line"/>
      <point x="525" y="350" type="line"/>
      <point x="535" y="340" type="line"/>
      <point x="535" y="10" type="line"/>
      <point x="545" y="0" type="line"/>
      <point x="745" y="0" type="line"/>
      <point x="765" y="20" type="line"/>
      <point x="765" y="680" type="line"/>
      <point x="745" y="700" type="line"/>
      <point x="725" y="700" type="line"/>
      <point x="400" y="503" type="line"/>
      <point x="390" y="500" type="line"/>
      <point x="380" y="503" type="line"/>
      <point x="55" y="700" type="line"/>
      <point x="35" y="700" type="line"/>
      <point x="15" y="680" type="line"/>
      <point x="15" y="20" type="line"/>
    </contour>
  </outline>
</glyph>
<glyph name="N" format="2">
  <advance width="520"/>
  <unicode hex="004E"/>
  <outline>
    <contour>
      <point x="35" y="0" type="line"/>
      <point x="235" y="0" type="line"/>
      <point x="245" y="10" type="line"/>
      <point x="245" y="340" type="line"/>
      <point x="255" y="350" type="line"/>
      <point x="265" y="350" type="line"/>
      <point x="275" y="340" type="line"/>
      <point x="275" y="10" type="line"/>
      <point x="285" y="0" type="line"/>
      <point x="485" y="0" type="line"/>
      <point x="505" y="20" type="line"/>
      <point x="505" y="680" type="line"/>
      <point x="485" y="700" type="line"/>
      <point x="295" y="700" type="line"/>
      <point x="275" y="680" type="line"/>
      <point x="275" y="513" type="line"/>
      <point x="265" y="503" type="line"/>
      <point x="255" y="500" type="line"/>
      <point x="245" y="503" type="line"/>
      <point x="55" y="700" type="line"/>
      <point x="35" y="700" type="line"/>
      <point x="15" y="680" type="line"/>
      <point x="15" y="20" type="line"/>
    </contour>
  </outline>
</glyph>
<glyph name="O" format="2">
  <advance width="740"/>
  <unicode hex="004F"/>
  <outline>
    <contour>
      <point x="370" y="-10" type="curve" smooth="yes"/>
      <point x="569" y="-10"/>
      <point x="730" y="151"/>
      <point x="730" y="350" type="curve" smooth="yes"/>
      <point x="730" y="549"/>
      <point x="569" y="710"/>
      <point x="370" y="710" type="curve" smooth="yes"/>
      <point x="171" y="710"/>
      <point x="10" y="549"/>
      <point x="10" y="350" type="curve" smooth="yes"/>
      <point x="10" y="151"/>
      <point x="171" y="-10"/>
    </contour>
  </outline>
</glyph>
<glyph name="P" format="2">
  <advance width="415"/>
  <unicode hex="0050"/>
  <outline>
    <contour>
      <point x="35" y="0" type="line"/>
      <point x="225" y="0" type="line"/>
      <point x="245" y="20" type="line"/>
      <point x="245" y="340" type="line"/>
      <point x="255" y="350" type="line"/>
      <point x="335" y="350"/>
      <point x="405" y="410"/>
      <point x="405" y="520" type="curve" smooth="yes"/>
      <point x="405" y="620"/>
      <point x="335" y="700"/>
      <point x="205" y="700" type="curve" smooth="yes"/>
      <point x="35" y="700" type="line"/>
      <point x="15" y="680" type="line"/>
      <point x="15" y="510" type="line"/>
      <point x="25" y="500" type="line"/>
      <point x="235" y="500" type="line"/>
      <point x="245" y="490" type="line"/>
      <point x="245" y="485" type="line"/>
      <point x="235" y="475" type="line"/>
      <point x="25" y="475" type="line"/>
      <point x="15" y="465" type="line"/>
      <point x="15" y="20" type="line"/>
    </contour>
  </outline>
</glyph>
<glyph name="Q" format="2">
  <advance width="740"/>
  <unicode hex="0051"/>
  <outline>
    <contour>
      <point x="390" y="0" type="curve" smooth="yes"/>
      <point x="705" y="0" type="line"/>
      <point x="725" y="20" type="line"/>
      <point x="725" y="40" type="line"/>
      <point x="627" y="111" type="line"/>
      <point x="622" y="121" type="line"/>
      <point x="627" y="131" type="line"/>
      <point x="677" y="177"/>
      <point x="730" y="263"/>
      <point x="730" y="350" type="curve" smooth="yes"/>
      <point x="730" y="551"/>
      <point x="569" y="710"/>
      <point x="370" y="710" type="curve" smooth="yes"/>
      <point x="171" y="710"/>
      <point x="10" y="554"/>
      <point x="10" y="350" type="curve" smooth="yes"/>
      <point x="10" y="151"/>
      <point x="150" y="0"/>
    </contour>
  </outline>
</glyph>
<glyph name="R" format="2">
  <advance width="515"/>
  <unicode hex="0052"/>
  <outline>
    <contour>
      <point x="35" y="0" type="line"/>
      <point x="235" y="0" type="line"/>
      <point x="245" y="10" type="line"/>
      <point x="245" y="290" type="line"/>
      <point x="255" y="300" type="line"/>
      <point x="265" y="300" type="line"/>
      <point x="275" y="290" type="line"/>
      <point x="275" y="10" type="line"/>
      <point x="285" y="0" type="line"/>
      <point x="485" y="0" type="line"/>
      <point x="505" y="20" type="line"/>
      <point x="505" y="40" type="line"/>
      <point x="425" y="290" type="line"/>
      <point x="423" y="300" type="line"/>
      <point x="425" y="310" type="line"/>
      <point x="475" y="350"/>
      <point x="505" y="397"/>
      <point x="505" y="470" type="curve" smooth="yes"/>
      <point x="505" y="610"/>
      <point x="435" y="700"/>
      <point x="255" y="700" type="curve" smooth="yes"/>
      <point x="35" y="700" type="line"/>
      <point x="15" y="680" type="line"/>
      <point x="15" y="510" type="line"/>
      <point x="25" y="500" type="line"/>
      <point x="235" y="500" type="line"/>
      <point x="245" y="490" type="line"/>
      <point x="245" y="485" type="line"/>
      <point x="235" y="475" type="line"/>
      <point x="25" y="475" type="line"/>
      <point x="15" y="465" type="line"/>
      <point x="15" y="20" type="line"/>
    </contour>
  </outline>
</glyph>
<glyph name="S" format="2">
  <advance width="500"/>
  <unicode hex="0053"/>
  <outline>
    <contour>
      <point x="248" y="-10" type="curve" smooth="yes"/>
      <point x="398" y="-10"/>
      <point x="490" y="116"/>
      <point x="490" y="226" type="curve" smooth="yes"/>
      <point x="490" y="339"/>
      <point x="439" y="421"/>
      <point x="351" y="487" type="curve"/>
      <point x="346" y="497" type="line"/>
      <point x="351" y="507" type="line"/>
      <point x="425" y="557" type="line"/>
      <point x="430" y="567" type="line"/>
      <point x="430" y="587" type="line"/>
      <point x="400" y="662"/>
      <point x="328" y="710"/>
      <point x="241" y="710" type="curve" smooth="yes"/>
      <point x="120" y="710"/>
      <point x="21" y="607"/>
      <point x="21" y="500" type="curve" smooth="yes"/>
      <point x="21" y="414"/>
      <point x="53" y="356"/>
      <point x="103" y="313" type="curve"/>
      <point x="108" y="303" type="line"/>
      <point x="103" y="293" type="line"/>
      <point x="14" y="242" type="line"/>
      <point x="10" y="232" type="line"/>
      <point x="10" y="212" type="line"/>
      <point x="10" y="101"/>
      <point x="122" y="-10"/>
    </contour>
  </outline>
</glyph>
<glyph name="T" format="2">
  <advance width="440"/>
  <unicode hex="0054"/>
  <outline>
    <contour>
      <point x="125" y="0" type="line"/>
      <point x="315" y="0" type="line"/>
      <point x="335" y="20" type="line"/>
      <point x="335" y="490" type="line"/>
      <point x="345" y="500" type="line"/>
      <point x="405" y="500" type="line"/>
      <point x="425" y="520" type="line"/>
      <point x="425" y="680" type="line"/>
      <point x="405" y="700" type="line"/>
      <point x="35" y="700" type="line"/>
      <point x="15" y="680" type="line"/>
      <point x="15" y="520" type="line"/>
      <point x="35" y="500" type="line"/>
      <point x="95" y="500" type="line"/>
      <point x="105" y="490" type="line"/>
      <point x="105" y="20" type="line"/>
    </contour>
  </outline>
</glyph>
<glyph name="U" format="2">
  <advance width="510"/>
  <unicode hex="0055"/>
  <outline>
    <contour>
      <point x="255" y="-10" type="curve" smooth="yes"/>
      <point x="405" y="-11"/>
      <point x="495" y="40"/>
      <point x="495" y="210" type="curve" smooth="yes"/>
      <point x="495" y="680" type="line"/>
      <point x="475" y="700" type="line"/>
      <point x="280" y="700" type="line"/>
      <point x="270" y="690" type="line"/>
      <point x="270" y="510" type="line"/>
      <point x="260" y="500" type="line"/>
      <point x="250" y="500" type="line"/>
      <point x="240" y="510" type="line"/>
      <point x="240" y="690" type="line"/>
      <point x="230" y="700" type="line"/>
      <point x="35" y="700" type="line"/>
      <point x="15" y="680" type="line"/>
      <point x="15" y="210" type="line" smooth="yes"/>
      <point x="15" y="40"/>
      <point x="105" y="-9"/>
    </contour>
  </outline>
</glyph>
<glyph name="V" format="2">
  <advance width="520"/>
  <unicode hex="0056"/>
  <outline>
    <contour>
      <point x="35" y="700" type="line"/>
      <point x="15" y="680" type="line"/>
      <point x="15" y="660" type="line"/>
      <point x="240" y="10" type="line"/>
      <point x="250" y="0" type="line"/>
      <point x="270" y="0" type="line"/>
      <point x="280" y="10" type="line"/>
      <point x="505" y="660" type="line"/>
      <point x="505" y="680" type="line"/>
      <point x="485" y="700" type="line"/>
      <point x="285" y="700" type="line"/>
      <point x="275" y="690" type="line"/>
      <point x="275" y="510" type="line"/>
      <point x="265" y="500" type="line"/>
      <point x="255" y="500" type="line"/>
      <point x="245" y="510" type="line"/>
      <point x="245" y="690" type="line"/>
      <point x="235" y="700" type="line"/>
    </contour>
  </outline>
</glyph>
<glyph name="W" format="2">
  <advance width="780"/>
  <unicode hex="0057"/>
  <outline>
    <contour>
      <point x="250" y="0" type="line"/>
      <point x="270" y="0" type="line"/>
      <point x="280" y="10" type="line"/>
      <point x="380" y="299" type="line"/>
      <point x="390" y="304" type="line"/>
      <point x="400" y="299" type="line"/>
      <point x="500" y="10" type="line"/>
      <point x="510" y="0" type="line"/>
      <point x="530" y="0" type="line"/>
      <point x="540" y="10" type="line"/>
      <point x="765" y="660" type="line"/>
      <point x="765" y="680" type="line"/>
      <point x="745" y="700" type="line"/>
      <point x="545" y="700" type="line"/>
      <point x="535" y="690" type="line"/>
      <point x="535" y="510" type="line"/>
      <point x="525" y="500" type="line"/>
      <point x="515" y="500" type="line"/>
      <point x="505" y="510" type="line"/>
      <point x="505" y="690" type="line"/>
      <point x="495" y="700" type="line"/>
      <point x="285" y="700" type="line"/>
      <point x="275" y="690" type="line"/>
      <point x="275" y="510" type="line"/>
      <point x="265" y="500" type="line"/>
      <point x="255" y="500" type="line"/>
      <point x="245" y="510" type="line"/>
      <point x="245" y="690" type="line"/>
      <point x="235" y="700" type="line"/>
      <point x="35" y="700" type="line"/>
      <point x="15" y="680" type="line"/>
      <point x="15" y="660" type="line"/>
      <point x="240" y="10" type="line"/>
    </contour>
  </outline>
</glyph>
<glyph name="X" format="2">
  <advance width="610"/>
  <unicode hex="0058"/>
  <outline>
    <contour>
      <point x="35" y="0" type="line"/>
      <point x="280" y="0" type="line"/>
      <point x="290" y="10" type="line"/>
      <point x="290" y="340" type="line"/>
      <point x="300" y="350" type="line"/>
      <point x="310" y="350" type="line"/>
      <point x="320" y="340" type="line"/>
      <point x="320" y="10" type="line"/>
      <point x="330" y="0" type="line"/>
      <point x="575" y="0" type="line"/>
      <point x="595" y="20" type="line"/>
      <point x="595" y="40" type="line"/>
      <point x="477" y="415" type="line"/>
      <point x="475" y="425" type="line"/>
      <point x="477" y="435" type="line"/>
      <point x="595" y="660" type="line"/>
      <point x="595" y="680" type="line"/>
      <point x="575" y="700" type="line"/>
      <point x="330" y="700" type="line"/>
      <point x="320" y="690" type="line"/>
      <point x="320" y="510" type="line"/>
      <point x="310" y="500" type="line"/>
      <point x="300" y="500" type="line"/>
      <point x="290" y="510" type="line"/>
      <point x="290" y="690" type="line"/>
      <point x="280" y="700" type="line"/>
      <point x="35" y="700" type="line"/>
      <point x="15" y="680" type="line"/>
      <point x="15" y="660" type="line"/>
      <point x="133" y="435" type="line"/>
      <point x="135" y="425" type="line"/>
      <point x="133" y="415" type="line"/>
      <point x="15" y="40" type="line"/>
      <point x="15" y="20" type="line"/>
    </contour>
  </outline>
</glyph>
<glyph name="Y" format="2">
  <advance width="460"/>
  <unicode hex="0059"/>
  <outline>
    <contour>
      <point x="135" y="0" type="line"/>
      <point x="325" y="0" type="line"/>
      <point x="345" y="20" type="line"/>
      <point x="345" y="350" type="line"/>
      <point x="347" y="360" type="line"/>
      <point x="445" y="660" type="line"/>
      <point x="445" y="680" type="line"/>
      <point x="425" y="700" type="line"/>
      <point x="255" y="700" type="line"/>
      <point x="245" y="690" type="line"/>
      <point x="245" y="510" type="line"/>
      <point x="235" y="500" type="line"/>
      <point x="225" y="500" type="line"/>
      <point x="215" y="510" type="line"/>
      <point x="215" y="690" type="line"/>
      <point x="205" y="700" type="line"/>
      <point x="35" y="700" type="line"/>
      <point x="15" y="680" type="line"/>
      <point x="15" y="660" type="line"/>
      <point x="113" y="360" type="line"/>
      <point x="115" y="350" type="line"/>
      <point x="115" y="20" type="line"/>
    </contour>
  </outline>
</glyph>
<glyph name="Z" format="2">
  <advance width="530"/>
  <unicode hex="005A"/>
  <outline>
    <contour>
      <point x="35" y="0" type="line"/>
      <point x="495" y="0" type="line"/>
      <point x="515" y="20" type="line"/>
      <point x="515" y="330" type="line"/>
      <point x="495" y="350" type="line"/>
      <point x="366" y="350" type="line"/>
      <point x="356" y="360" type="line"/>
      <point x="356" y="370" type="line"/>
      <point x="515" y="660" type="line"/>
      <point x="515" y="680" type="line"/>
      <point x="495" y="700" type="line"/>
      <point x="55" y="700" type="line"/>
      <point x="35" y="680" type="line"/>
      <point x="35" y="520" type="line"/>
      <point x="55" y="500" type="line"/>
      <point x="246" y="500" type="line"/>
      <point x="256" y="490" type="line"/>
      <point x="256" y="480" type="line"/>
      <point x="15" y="40" type="line"/>
      <point x="15" y="20" type="line"/>
    </contour>
  </outline>
</glyph>
<glyph name="endash" format="2">
  <advance width="570"/>
  <unicode hex="2013"/>
  <outline>
    <contour>
      <point x="22" y="375" type="line"/>
      <point x="545" y="375" type="line"/>
      <point x="555" y="385" type="line"/>
      <point x="555" y="465" type="line"/>
      <point x="545" y="475" type="line"/>
      <point x="25" y="475" type="line"/>
      <point x="15" y="465" type="line"/>
      <point x="15" y="385" type="line"/>
    </contour>
  </outline>
</glyph>
<glyph name="emdash" format="2">
  <advance width="780"/>
  <unicode hex="2014"/>
  <outline>
    <contour>
      <point x="22" y="375" type="line"/>
      <point x="755" y="375" type="line"/>
      <point x="765" y="385" type="line"/>
      <point x="765" y="465" type="line"/>
      <point x="755" y="475" type="line"/>
      <point x="25" y="475" type="line"/>
      <point x="15" y="465" type="line"/>
      <point x="15" y="385" type="line"/>
    </contour>
  </outline>
</glyph>
